<svg width="112" height="112" viewBox="0 0 112 112" fill="none" xmlns="http://www.w3.org/2000/svg">
<g clip-path="url(#clip0_86_304)">
<g filter="url(#filter0_d_86_304)">
<path d="M44.3335 77L77.0002 56L44.3335 35V77ZM56.0002 102.667C49.5446 102.667 43.4779 101.441 37.8002 98.9893C32.1224 96.5378 27.1835 93.2136 22.9835 89.0167C18.7835 84.8167 15.4593 79.8778 13.0108 74.2C10.5624 68.5222 9.33661 62.4556 9.3335 56C9.3335 49.5444 10.5593 43.4778 13.0108 37.8C15.4624 32.1222 18.7866 27.1833 22.9835 22.9833C27.1835 18.7833 32.1224 15.4591 37.8002 13.0107C43.4779 10.5622 49.5446 9.33645 56.0002 9.33334C62.4557 9.33334 68.5224 10.5591 74.2002 13.0107C79.8779 15.4622 84.8168 18.7864 89.0168 22.9833C93.2168 27.1833 96.5426 32.1222 98.9942 37.8C101.446 43.4778 102.67 49.5444 102.667 56C102.667 62.4556 101.441 68.5222 98.9895 74.2C96.5379 79.8778 93.2137 84.8167 89.0168 89.0167C84.8168 93.2167 79.8779 96.5424 74.2002 98.994C68.5224 101.446 62.4557 102.67 56.0002 102.667ZM56.0002 93.3333C66.4224 93.3333 75.2502 89.7167 82.4835 82.4833C89.7168 75.25 93.3335 66.4222 93.3335 56C93.3335 45.5778 89.7168 36.75 82.4835 29.5167C75.2502 22.2833 66.4224 18.6667 56.0002 18.6667C45.5779 18.6667 36.7502 22.2833 29.5168 29.5167C22.2835 36.75 18.6668 45.5778 18.6668 56C18.6668 66.4222 22.2835 75.25 29.5168 82.4833C36.7502 89.7167 45.5779 93.3333 56.0002 93.3333Z" fill="white"/>
</g>
</g>
<defs>
<filter id="filter0_d_86_304" x="9.3335" y="9.33334" width="105.333" height="101.333" filterUnits="userSpaceOnUse" color-interpolation-filters="sRGB">
<feFlood flood-opacity="0" result="BackgroundImageFix"/>
<feColorMatrix in="SourceAlpha" type="matrix" values="0 0 0 0 0 0 0 0 0 0 0 0 0 0 0 0 0 0 127 0" result="hardAlpha"/>
<feOffset dx="8" dy="4"/>
<feGaussianBlur stdDeviation="2"/>
<feComposite in2="hardAlpha" operator="out"/>
<feColorMatrix type="matrix" values="0 0 0 0 0 0 0 0 0 0 0 0 0 0 0 0 0 0 0.44 0"/>
<feBlend mode="normal" in2="BackgroundImageFix" result="effect1_dropShadow_86_304"/>
<feBlend mode="normal" in="SourceGraphic" in2="effect1_dropShadow_86_304" result="shape"/>
</filter>
<clipPath id="clip0_86_304">
<rect width="112" height="112" fill="white"/>
</clipPath>
</defs>
</svg>
