<svg width="190" height="40" viewBox="0 0 190 40" fill="none" xmlns="http://www.w3.org/2000/svg">
<g filter="url(#filter0_i_416_71)">
<path d="M19.6854 35.433H31.4967C33.6711 35.433 35.4337 37.1957 35.4337 39.37H19.6854C8.81316 39.37 0 30.557 0 19.685C0 8.81297 8.81316 0 19.6854 0C30.5577 0 39.3708 8.81297 39.3708 19.685C39.3771 23.9453 37.995 28.0916 35.4337 31.496C32.8326 31.496 31.4863 29.1716 32.8165 26.9363C33.3853 25.9805 33.889 24.7156 34.2355 22.4689C34.7973 18.8262 35.0788 14.7183 33.1774 11.5609C31.2759 8.40351 28.3273 6.01304 24.8448 4.80577C21.3623 3.59851 17.5667 3.65093 14.119 4.95392C10.6712 6.25691 7.78966 8.72791 5.97617 11.9366C4.16268 15.1453 3.53212 18.8885 4.19429 22.5142C4.85647 26.14 6.76943 29.4186 9.60005 31.7792C12.4307 34.1398 15.9996 35.4328 19.6854 35.433ZM19.6854 15.748C18.6412 15.748 17.6398 15.3332 16.9015 14.5949C16.1631 13.8565 15.7483 12.8552 15.7483 11.811C15.7483 10.7668 16.1631 9.76545 16.9015 9.02712C17.6398 8.28879 18.6412 7.874 19.6854 7.874C20.7296 7.874 21.731 8.28879 22.4693 9.02712C23.2077 9.76545 23.6225 10.7668 23.6225 11.811C23.6225 12.8552 23.2077 13.8565 22.4693 14.5949C21.731 15.3332 20.7296 15.748 19.6854 15.748ZM11.8112 23.622C10.7671 23.622 9.76565 23.2072 9.02731 22.4689C8.28896 21.7305 7.87416 20.7292 7.87416 19.685C7.87416 18.6408 8.28896 17.6395 9.02731 16.9011C9.76565 16.1628 10.7671 15.748 11.8112 15.748C12.8554 15.748 13.8568 16.1628 14.5952 16.9011C15.3335 17.6395 15.7483 18.6408 15.7483 19.685C15.7483 20.7292 15.3335 21.7305 14.5952 22.4689C13.8568 23.2072 12.8554 23.622 11.8112 23.622ZM27.5596 23.622C26.5154 23.622 25.514 23.2072 24.7756 22.4689C24.0373 21.7305 23.6225 20.7292 23.6225 19.685C23.6225 18.6408 24.0373 17.6395 24.7756 16.9011C25.514 16.1628 26.5154 15.748 27.5596 15.748C28.6037 15.748 29.6052 16.1628 30.3435 16.9011C31.0819 17.6395 31.4967 18.6408 31.4967 19.685C31.4967 20.7292 31.0819 21.7305 30.3435 22.4689C29.6052 23.2072 28.6037 23.622 27.5596 23.622ZM19.6854 31.496C18.6412 31.496 17.6398 31.0812 16.9015 30.3429C16.1631 29.6045 15.7483 28.6032 15.7483 27.559C15.7483 26.5148 16.1631 25.5135 16.9015 24.7751C17.6398 24.0368 18.6412 23.622 19.6854 23.622C20.7296 23.622 21.731 24.0368 22.4693 24.7751C23.2077 25.5135 23.6225 26.5148 23.6225 27.559C23.6225 28.6032 23.2077 29.6045 22.4693 30.3429C21.731 31.0812 20.7296 31.496 19.6854 31.496Z" fill="#CCFF00"/>
</g>
<path d="M43.4163 31.0672V13.049C43.4163 12.9445 43.3451 12.8543 43.2026 12.7783C43.0697 12.7024 42.894 12.6406 42.6756 12.5932C42.4572 12.5362 42.2151 12.4935 41.9492 12.465C41.6928 12.427 41.4412 12.3985 41.1943 12.3795C40.9474 12.351 40.7195 12.3273 40.5106 12.3083C40.3017 12.2893 40.1497 12.2656 40.0548 12.2371C39.9313 12.2276 39.8696 12.1564 39.8696 12.0234C39.8696 11.9569 39.9124 11.9142 39.9978 11.8952C40.0928 11.8667 40.1735 11.8525 40.24 11.8525H44.4703C44.7362 11.8525 45.0733 11.8382 45.4816 11.8098C45.89 11.7813 46.3268 11.7528 46.7921 11.7243C47.2573 11.6958 47.7321 11.6673 48.2164 11.6388C48.7007 11.6103 49.1518 11.5961 49.5696 11.5961H53.2729C53.2824 11.5866 53.3394 11.5819 53.4439 11.5819H53.743C53.8854 11.5819 53.9756 11.6531 54.0136 11.7955C54.0611 11.9285 54.0848 12.0519 54.0848 12.1658C54.1228 12.6596 54.1655 13.1677 54.213 13.6899C54.2605 14.2027 54.2842 14.706 54.2842 15.1998C54.2842 15.3042 54.251 15.3944 54.1845 15.4704C54.1276 15.5369 54.0421 15.5701 53.9281 15.5701C53.8522 15.5701 53.7762 15.5558 53.7002 15.5274C53.6243 15.4894 53.5531 15.3944 53.4866 15.2425C53.4106 15.0811 53.3252 14.9006 53.2302 14.7012C53.1352 14.5018 53.0308 14.3072 52.9168 14.1172C52.8029 13.9273 52.6842 13.7564 52.5607 13.6045C52.4373 13.443 52.3186 13.3243 52.2047 13.2484C51.8913 13.03 51.5684 12.859 51.2361 12.7356C50.9037 12.6122 50.5571 12.5219 50.1963 12.465C49.845 12.408 49.4841 12.3748 49.1138 12.3653C48.7434 12.3463 48.3636 12.3368 47.9743 12.3368H46.9915C46.7541 12.3368 46.5547 12.3748 46.3932 12.4507C46.2413 12.5172 46.1653 12.6929 46.1653 12.9777V20.9827C46.1653 21.0871 46.2081 21.1631 46.2935 21.2106C46.379 21.2581 46.4455 21.2913 46.4929 21.3103C46.6923 21.2818 46.906 21.2628 47.1339 21.2533C47.3618 21.2438 47.585 21.2391 47.8034 21.2391C48.1452 21.2391 48.4871 21.2343 48.8289 21.2248C49.1802 21.2153 49.5079 21.1916 49.8117 21.1536C50.1156 21.1061 50.3862 21.0397 50.6236 20.9542C50.8705 20.8687 51.0557 20.75 51.1791 20.5981C51.2171 20.5411 51.2551 20.4509 51.2931 20.3275C51.3405 20.204 51.3833 20.0711 51.4213 19.9287C51.4592 19.7862 51.4925 19.6533 51.521 19.5298C51.5589 19.4064 51.5922 19.3162 51.6207 19.2592C51.6681 19.1168 51.6966 18.9648 51.7061 18.8034C51.7156 18.6325 51.7299 18.4758 51.7489 18.3334C51.7679 18.1909 51.8106 18.0722 51.8771 17.9773C51.9435 17.8823 52.0622 17.8348 52.2331 17.8348C52.4421 17.8348 52.5655 17.9156 52.6035 18.077C52.651 18.2384 52.6747 18.4046 52.6747 18.5755V24.0451C52.6747 24.0926 52.6747 24.1448 52.6747 24.2018C52.6747 24.2492 52.6842 24.3015 52.7032 24.3584C52.7222 24.5104 52.7317 24.6481 52.7317 24.7715C52.7412 24.8855 52.7459 24.9614 52.7459 24.9994C52.7459 25.1039 52.7174 25.1988 52.6605 25.2843C52.613 25.3697 52.537 25.4267 52.4326 25.4552C52.3091 25.4552 52.2094 25.3603 52.1334 25.1703C52.0385 24.9234 51.9768 24.6623 51.9483 24.3869C51.9198 24.1021 51.8723 23.8314 51.8058 23.575C51.7394 23.3092 51.6349 23.067 51.4925 22.8486C51.3595 22.6207 51.1364 22.4355 50.823 22.2931C50.7091 22.2361 50.5666 22.1887 50.3957 22.1507C50.2248 22.1127 50.0444 22.0842 49.8544 22.0652C49.674 22.0367 49.4936 22.0177 49.3132 22.0082C49.1328 21.9892 48.9808 21.9798 48.8574 21.9798C48.8099 21.9798 48.6675 21.975 48.4301 21.9655C48.2022 21.956 47.96 21.9513 47.7037 21.9513C47.4283 21.9513 47.1766 21.9608 46.9487 21.9798C46.7208 21.9892 46.5831 22.013 46.5357 22.051C46.4502 22.1269 46.3932 22.1934 46.3647 22.2504C46.3363 22.3074 46.322 22.4118 46.322 22.5637V31.0245C46.3315 31.1574 46.417 31.2571 46.5784 31.3236C46.7493 31.3806 46.9535 31.4233 47.1909 31.4518C47.4378 31.4803 47.6989 31.4993 47.9743 31.5088C48.2497 31.5183 48.506 31.5373 48.7434 31.5658C48.9808 31.5847 49.1755 31.6275 49.3274 31.6939C49.4889 31.7604 49.5696 31.8649 49.5696 32.0073C49.5696 32.0833 49.5411 32.1402 49.4841 32.1782C49.4366 32.2162 49.3749 32.24 49.2989 32.2495C49.223 32.2684 49.1423 32.2779 49.0568 32.2779C48.9808 32.2874 48.9144 32.2922 48.8574 32.2922C48.3541 32.2922 47.9031 32.2874 47.5042 32.2779C47.1054 32.2684 46.7256 32.2589 46.3647 32.2495C46.0039 32.2305 45.6526 32.2162 45.3107 32.2067C44.9689 32.1877 44.608 32.1782 44.2282 32.1782C44.0098 32.1782 43.7914 32.1877 43.573 32.2067C43.3546 32.2162 43.1267 32.2305 42.8893 32.2495C42.443 32.2779 41.9919 32.2922 41.5361 32.2922H40.8239C40.7765 32.2922 40.7242 32.2827 40.6673 32.2637C40.6103 32.2542 40.5818 32.2067 40.5818 32.1213C40.5818 32.0263 40.6103 31.9598 40.6673 31.9218C40.7242 31.8839 40.8334 31.8459 40.9949 31.8079C41.2608 31.7509 41.5361 31.7129 41.821 31.6939C42.1059 31.6655 42.367 31.637 42.6044 31.6085C42.8418 31.5705 43.0365 31.5135 43.1884 31.4376C43.3403 31.3616 43.4163 31.2381 43.4163 31.0672ZM56.0077 31.9788C56.0077 31.9313 56.0125 31.8601 56.022 31.7652C56.041 31.6607 56.1027 31.6085 56.2071 31.6085H57.8594C57.9449 31.6085 58.0351 31.58 58.13 31.523C58.225 31.466 58.2725 31.3901 58.2725 31.2951V22.8629C58.2725 22.4166 58.2582 22.0272 58.2297 21.6949C58.2013 21.3625 58.111 21.1109 57.9591 20.94C57.8926 20.8355 57.8262 20.769 57.7597 20.7406C57.7027 20.7121 57.6552 20.6883 57.6173 20.6693C57.5698 20.6503 57.5176 20.6361 57.4606 20.6266C57.4131 20.6171 57.3561 20.6124 57.2897 20.6124H56.9905C56.8006 20.6124 56.5727 20.6171 56.3068 20.6266C56.041 20.6361 55.8178 20.6503 55.6374 20.6693C55.5994 20.6693 55.5567 20.6646 55.5092 20.6551C55.4617 20.6361 55.438 20.6076 55.438 20.5696C55.438 20.4652 55.457 20.4034 55.4949 20.3845C55.5424 20.3655 55.5994 20.337 55.6659 20.299C56.0362 20.1756 56.4398 20.0711 56.8766 19.9856C57.3134 19.8907 57.7312 19.791 58.13 19.6865C58.1585 19.6865 58.2202 19.6723 58.3152 19.6438C58.4197 19.6058 58.5241 19.5678 58.6286 19.5298C58.7425 19.4919 58.8517 19.4539 58.9562 19.4159C59.0606 19.3779 59.1366 19.3494 59.1841 19.3304C59.3075 19.2924 59.431 19.2402 59.5544 19.1737C59.6873 19.0978 59.8203 19.0266 59.9532 18.9601C60.0862 18.8936 60.2144 18.8366 60.3378 18.7892C60.4707 18.7417 60.6037 18.7179 60.7366 18.7179C60.7841 18.7179 60.8268 18.7417 60.8648 18.7892C60.9123 18.8366 60.936 18.9031 60.936 18.9886V28.2327C60.936 28.5746 60.9265 28.8595 60.9076 29.0874C60.8981 29.3058 60.8838 29.5099 60.8648 29.6998C60.8458 29.8803 60.8268 30.0654 60.8078 30.2553C60.7983 30.4358 60.7936 30.6589 60.7936 30.9248C60.7936 31.2002 60.8221 31.3853 60.8791 31.4803C60.9455 31.5658 61.1307 31.6085 61.4346 31.6085C61.539 31.6085 61.7004 31.599 61.9189 31.58C62.1373 31.5515 62.3224 31.5373 62.4744 31.5373C62.5503 31.5373 62.631 31.5468 62.7165 31.5658C62.8115 31.5752 62.8969 31.599 62.9729 31.637C63.0583 31.675 63.1248 31.7272 63.1723 31.7937C63.2293 31.8601 63.2578 31.9456 63.2578 32.05C63.2578 32.1165 63.2435 32.1735 63.215 32.221C63.196 32.2684 63.1438 32.2922 63.0583 32.2922C62.3652 32.2922 61.7384 32.2827 61.1782 32.2637C60.6274 32.2542 60.1052 32.2495 59.6114 32.2495C58.7662 32.2495 58.0826 32.2874 57.5603 32.3634C57.038 32.4394 56.6677 32.4773 56.4493 32.4773C56.1549 32.4773 56.0077 32.3112 56.0077 31.9788ZM57.9591 13.3053C57.9591 13.049 58.0066 12.8306 58.1015 12.6501C58.1965 12.4602 58.3199 12.3083 58.4719 12.1943C58.6333 12.0709 58.8185 11.9854 59.0274 11.938C59.2363 11.881 59.4547 11.8525 59.6826 11.8525C59.8915 11.8525 60.0909 11.8905 60.2808 11.9664C60.4707 12.0424 60.6369 12.1469 60.7794 12.2798C60.9218 12.4127 61.031 12.5694 61.107 12.7498C61.1924 12.9303 61.2352 13.1202 61.2352 13.3196C61.2352 13.576 61.1924 13.7991 61.107 13.989C61.0215 14.1695 60.9028 14.3166 60.7509 14.4306C60.5989 14.5445 60.4185 14.63 60.2096 14.687C60.0102 14.7345 59.7918 14.7582 59.5544 14.7582C59.0606 14.7582 58.6713 14.6443 58.3864 14.4164C58.1015 14.1885 57.9591 13.8181 57.9591 13.3053ZM63.9415 32.1213C63.9415 32.0358 63.9652 31.9646 64.0127 31.9076C64.0696 31.8411 64.1314 31.7937 64.1978 31.7652C64.2738 31.7272 64.3498 31.6987 64.4257 31.6797C64.5017 31.6607 64.5634 31.6512 64.6109 31.6512H66.0353C66.2632 31.6512 66.3771 31.504 66.3771 31.2097V15.741C66.3771 15.2852 66.3344 14.9339 66.2489 14.687C66.1635 14.4306 66.0543 14.2407 65.9213 14.1172C65.7884 13.9938 65.6365 13.9226 65.4655 13.9036C65.3041 13.8751 65.1427 13.8608 64.9812 13.8608C64.8483 13.8608 64.7296 13.8703 64.6252 13.8893C64.5207 13.9083 64.4257 13.9321 64.3403 13.9606C64.2548 13.9795 64.1694 13.9985 64.0839 14.0175C63.9984 14.0365 63.9082 14.046 63.8133 14.046C63.7278 14.046 63.6518 14.0318 63.5854 14.0033C63.5094 13.9653 63.4714 13.9036 63.4714 13.8181C63.4714 13.6852 63.5379 13.5855 63.6708 13.519C63.8228 13.4145 63.9794 13.3338 64.1409 13.2769C64.3023 13.2104 64.4637 13.1582 64.6252 13.1202C64.7961 13.0727 64.967 13.03 65.1379 12.992C65.3088 12.954 65.475 12.9065 65.6365 12.8495C66.0543 12.7071 66.3629 12.6027 66.5623 12.5362C66.7617 12.4602 66.9136 12.3985 67.0181 12.351C67.132 12.294 67.2317 12.2418 67.3172 12.1943C67.4027 12.1469 67.5404 12.0804 67.7303 11.9949C67.9772 11.9 68.2193 11.8525 68.4567 11.8525C68.4947 11.8525 68.5564 11.862 68.6419 11.881C68.7273 11.8905 68.7938 11.9285 68.8413 11.9949C68.9552 12.1184 69.0122 12.3653 69.0122 12.7356V31.2097C69.0122 31.4091 69.0692 31.5325 69.1831 31.58C69.2971 31.618 69.4205 31.637 69.5535 31.637C69.7719 31.637 69.976 31.6227 70.1659 31.5942C70.3654 31.5563 70.5743 31.5373 70.7927 31.5373C70.9161 31.5373 71.0253 31.5705 71.1203 31.637C71.2152 31.7034 71.2627 31.8031 71.2627 31.9361C71.2627 32.031 71.239 32.126 71.1915 32.221C71.144 32.3064 71.0775 32.3492 70.9921 32.3492H70.522C70.1707 32.3492 69.8431 32.3397 69.5392 32.3207C69.2449 32.3112 68.9552 32.2969 68.6704 32.2779C68.3855 32.2589 68.1054 32.2447 67.83 32.2352C67.5546 32.2162 67.2602 32.2067 66.9469 32.2067C66.5765 32.2067 66.2252 32.2305 65.8928 32.2779C65.57 32.3254 65.2566 32.3492 64.9528 32.3492H64.1836C64.1266 32.3492 64.0696 32.3207 64.0127 32.2637C63.9652 32.2162 63.9415 32.1687 63.9415 32.1213ZM74.4675 31.1384L74.7097 21.5809C74.7097 21.4955 74.6907 21.391 74.6527 21.2676C74.6242 21.1441 74.5815 21.0254 74.5245 20.9115C74.4675 20.7975 74.4011 20.7026 74.3251 20.6266C74.2491 20.5411 74.1732 20.4984 74.0972 20.4984C73.9168 20.4984 73.7506 20.5174 73.5987 20.5554C73.4562 20.5934 73.328 20.6361 73.2141 20.6836C73.1001 20.7216 73.0004 20.7595 72.915 20.7975C72.8295 20.826 72.763 20.8403 72.7156 20.8403C72.5826 20.8403 72.5162 20.7738 72.5162 20.6408C72.5257 20.5554 72.5636 20.4747 72.6301 20.3987C72.7061 20.3227 72.7915 20.2563 72.8865 20.1993C72.9815 20.1423 73.0764 20.0948 73.1714 20.0569C73.2663 20.0094 73.3375 19.9761 73.385 19.9571C73.7079 19.8717 74.0022 19.7862 74.2681 19.7008C74.534 19.6058 74.7904 19.5061 75.0373 19.4016C75.2842 19.2972 75.5311 19.1832 75.778 19.0598C76.0249 18.9269 76.2955 18.7797 76.5899 18.6182C76.7133 18.5708 76.8272 18.547 76.9317 18.547C77.0456 18.547 77.1026 18.5992 77.1026 18.7037C77.1026 18.7892 77.0931 18.9079 77.0741 19.0598C77.0551 19.2117 77.0362 19.3684 77.0172 19.5298C76.9982 19.6913 76.9792 19.8479 76.9602 19.9999C76.9412 20.1423 76.9317 20.2515 76.9317 20.3275V20.5981C76.9317 20.7595 76.9459 20.9162 76.9744 21.0682C77.0124 21.2106 77.0646 21.2818 77.1311 21.2818C77.2356 21.2818 77.3115 21.2153 77.359 21.0824C77.416 20.9495 77.5204 20.7928 77.6724 20.6124C77.9383 20.2895 78.2516 19.9856 78.6125 19.7008C78.9733 19.4064 79.3579 19.15 79.7662 18.9316C80.1745 18.7132 80.5971 18.5375 81.0339 18.4046C81.4802 18.2716 81.9122 18.2052 82.3301 18.2052C82.482 18.2052 82.6577 18.2194 82.8571 18.2479C83.066 18.2669 83.2844 18.3334 83.5123 18.4473C83.7402 18.5518 83.9728 18.7132 84.2102 18.9316C84.4476 19.1405 84.6755 19.4301 84.8939 19.8005C84.9319 19.8859 84.9604 19.9666 84.9794 20.0426C85.0079 20.1091 85.0316 20.1803 85.0506 20.2563C85.0696 20.3322 85.0933 20.4224 85.1218 20.5269C85.1503 20.6313 85.1883 20.769 85.2358 20.94C85.3022 21.1394 85.3687 21.2391 85.4352 21.2391C85.5301 21.2391 85.6014 21.1394 85.6488 20.94C85.7153 20.6836 85.8245 20.4604 85.9764 20.2705C86.1284 20.0711 86.2328 19.9429 86.2898 19.8859C86.7836 19.3352 87.3438 18.8841 87.9706 18.5328C88.6068 18.1814 89.3142 18.0058 90.0929 18.0058C90.5107 18.0058 90.8858 18.0912 91.2181 18.2621C91.56 18.4236 91.8591 18.642 92.1155 18.9174C92.3719 19.1927 92.5903 19.5108 92.7707 19.8717C92.9511 20.2325 93.0983 20.6076 93.2122 20.9969C93.3262 21.3768 93.4069 21.7613 93.4544 22.1507C93.5114 22.54 93.5398 22.9008 93.5398 23.2332V28.3324C93.5398 28.7597 93.5161 29.1776 93.4686 29.5859C93.4211 29.9847 93.3974 30.3455 93.3974 30.6684C93.3974 30.9913 93.5588 31.1669 93.8817 31.1954H95.4912C95.5767 31.1954 95.6337 31.2334 95.6622 31.3094C95.6716 31.3758 95.6811 31.4328 95.6906 31.4803C95.7001 31.5278 95.7049 31.5705 95.7049 31.6085C95.7049 31.675 95.7001 31.7414 95.6906 31.8079C95.6811 31.8744 95.6716 31.9313 95.6622 31.9788C95.6432 32.0453 95.5387 32.0833 95.3488 32.0928C95.1589 32.1023 94.9595 32.107 94.7506 32.107H93.3974C92.9131 32.107 92.4953 32.1165 92.144 32.1355C91.8021 32.145 91.4935 32.1592 91.2181 32.1782C90.9522 32.1972 90.7006 32.2162 90.4632 32.2352C90.2353 32.2447 90.0027 32.2495 89.7653 32.2495H89.1955C88.9011 32.2495 88.754 32.1165 88.754 31.8506C88.754 31.7462 88.7682 31.6655 88.7967 31.6085C88.8347 31.5515 88.8774 31.504 88.9249 31.466C88.9534 31.4471 89.0198 31.4281 89.1243 31.4091C89.2382 31.3806 89.3569 31.3568 89.4804 31.3379C89.6133 31.3189 89.7368 31.3046 89.8507 31.2951C89.9647 31.2761 90.0454 31.2666 90.0929 31.2666C90.1403 31.2476 90.1878 31.2381 90.2353 31.2381C90.2828 31.2381 90.3255 31.2381 90.3635 31.2381H90.6341C90.7956 31.2381 90.8763 31.1479 90.8763 30.9675V22.6919C90.8763 22.3121 90.843 21.9513 90.7766 21.6094C90.7101 21.2676 90.6009 20.9684 90.449 20.7121C90.3065 20.4557 90.1071 20.2563 89.8507 20.1138C89.6038 19.9619 89.2952 19.8859 88.9249 19.8859C88.3741 19.8859 87.8756 19.9666 87.4293 20.1281C86.9925 20.2895 86.6222 20.5127 86.3183 20.7975C86.0144 21.0824 85.777 21.4195 85.6061 21.8088C85.4447 22.1887 85.364 22.6065 85.364 23.0623V30.8963C85.364 31.0102 85.3972 31.1005 85.4637 31.1669C85.5301 31.2334 85.6109 31.2904 85.7058 31.3379C85.8008 31.3758 85.9005 31.4043 86.0049 31.4233C86.1189 31.4423 86.2138 31.4566 86.2898 31.466C86.4227 31.4755 86.5319 31.485 86.6174 31.4945C86.7029 31.504 86.7836 31.5088 86.8596 31.5088C86.9355 31.5088 86.9972 31.5088 87.0447 31.5088C87.0922 31.5088 87.1397 31.5183 87.1872 31.5373C87.2726 31.5752 87.3201 31.6227 87.3296 31.6797C87.3486 31.7367 87.3581 31.8031 87.3581 31.8791C87.3581 31.9836 87.3201 32.0643 87.2441 32.1213C87.1682 32.1687 87.0732 32.2067 86.9593 32.2352C86.8548 32.2542 86.7409 32.2637 86.6174 32.2637C86.5035 32.2732 86.4038 32.2779 86.3183 32.2779C86.3088 32.2779 86.2376 32.2732 86.1046 32.2637C85.9812 32.2637 85.8103 32.2637 85.5919 32.2637C85.3735 32.2637 85.1218 32.2589 84.8369 32.2495C84.5521 32.2495 84.2482 32.2495 83.9254 32.2495C83.7069 32.2495 83.4696 32.2495 83.2132 32.2495C82.9568 32.2589 82.7051 32.2637 82.4583 32.2637C82.2209 32.2732 82.0025 32.2779 81.803 32.2779C81.6036 32.2874 81.4564 32.2922 81.3615 32.2922C81.1906 32.2922 81.0244 32.2684 80.863 32.221C80.7015 32.1735 80.6208 32.05 80.6208 31.8506C80.6208 31.6132 80.7727 31.485 81.0766 31.466C81.1526 31.4471 81.2238 31.4376 81.2903 31.4376C81.3567 31.4376 81.4375 31.4376 81.5324 31.4376C81.6559 31.4376 81.784 31.4328 81.917 31.4233C82.0499 31.4043 82.1734 31.3806 82.2873 31.3521C82.4013 31.3141 82.4915 31.2666 82.558 31.2097C82.6339 31.1432 82.6719 31.0625 82.6719 30.9675L82.8428 22.3643C82.8428 22.1459 82.8096 21.9323 82.7431 21.7234C82.6672 21.4955 82.558 21.2723 82.4155 21.0539C82.2731 20.8355 82.1022 20.6408 81.9027 20.4699C81.7128 20.299 81.4992 20.1613 81.2618 20.0569C81.0244 19.9524 80.7727 19.9002 80.5069 19.9002C80.1745 19.9002 79.8469 19.9524 79.5241 20.0569C79.2012 20.1518 78.9021 20.2942 78.6267 20.4842C78.3513 20.6646 78.0997 20.883 77.8718 21.1394C77.6534 21.3863 77.4777 21.6664 77.3448 21.9798C77.2878 22.1507 77.2308 22.3263 77.1738 22.5068C77.1264 22.6777 77.1026 22.8629 77.1026 23.0623L76.9032 30.9248C76.9032 31.0862 76.9222 31.2287 76.9602 31.3521C76.9982 31.4755 77.0789 31.5373 77.2023 31.5373H78.8831C78.9685 31.5373 79.016 31.5658 79.0255 31.6227C79.0445 31.6797 79.054 31.7414 79.054 31.8079C79.054 31.9124 79.0255 32.0216 78.9685 32.1355C78.9116 32.24 78.8071 32.2922 78.6552 32.2922C78.2374 32.2922 77.8243 32.2874 77.416 32.2779C77.0077 32.2779 76.6231 32.2732 76.2622 32.2637C75.9014 32.2637 75.5785 32.2589 75.2937 32.2495C75.0183 32.2495 74.8094 32.2495 74.667 32.2495C74.4201 32.2495 74.1447 32.2542 73.8408 32.2637C73.5465 32.2827 73.2188 32.2922 72.858 32.2922H72.4734C72.407 32.2922 72.35 32.2637 72.3025 32.2067C72.2645 32.1497 72.2455 32.0833 72.2455 32.0073C72.2455 31.9218 72.2693 31.8459 72.3167 31.7794C72.3737 31.7034 72.4592 31.656 72.5731 31.637C72.7156 31.599 72.8533 31.58 72.9862 31.58C73.1191 31.5705 73.2568 31.5658 73.3993 31.5658H73.9263C74.0782 31.5658 74.2064 31.5373 74.3109 31.4803C74.4153 31.4233 74.4675 31.3094 74.4675 31.1384ZM103.738 30.1984L103.667 30.2553C103.658 30.2553 103.577 30.3266 103.425 30.469C103.283 30.6019 103.121 30.7539 102.941 30.9248C102.76 31.0862 102.589 31.2381 102.428 31.3806C102.266 31.523 102.167 31.599 102.129 31.6085C101.825 31.7794 101.478 31.9408 101.089 32.0928C100.709 32.2447 100.277 32.3207 99.7928 32.3207C99.451 32.3207 99.1091 32.2732 98.7673 32.1782C98.4349 32.0833 98.1311 31.9218 97.8557 31.6939C97.5898 31.4566 97.3714 31.1432 97.2005 30.7539C97.039 30.3645 96.9583 29.8708 96.9583 29.2725C96.9583 29.0541 97.0106 28.7787 97.115 28.4464C97.229 28.1045 97.4141 27.7959 97.6705 27.5205C97.9364 27.2072 98.226 26.9461 98.5394 26.7371C98.8622 26.5187 99.2136 26.3288 99.5934 26.1674C99.9827 25.9965 100.41 25.8445 100.875 25.7116C101.341 25.5787 101.858 25.441 102.428 25.2985C102.561 25.27 102.703 25.2368 102.855 25.1988C103.007 25.1608 103.15 25.1229 103.283 25.0849C103.425 25.0469 103.544 25.0137 103.639 24.9852C103.743 24.9472 103.81 24.914 103.838 24.8855C103.886 24.8475 103.928 24.8142 103.966 24.7858C104.014 24.7573 104.042 24.6908 104.052 24.5863C104.09 24.3679 104.123 24.1353 104.151 23.8884C104.189 23.6415 104.218 23.3946 104.237 23.1477C104.265 22.9008 104.284 22.6634 104.294 22.4355C104.303 22.2077 104.308 22.0035 104.308 21.8231C104.308 21.4527 104.237 21.1061 104.094 20.7833C103.952 20.4604 103.757 20.1803 103.51 19.9429C103.273 19.7055 102.993 19.5203 102.67 19.3874C102.347 19.2545 102.005 19.188 101.644 19.188C101.36 19.188 101.061 19.2592 100.747 19.4016C100.443 19.5346 100.163 19.715 99.9068 19.9429C99.6599 20.1708 99.4557 20.4319 99.2943 20.7263C99.1329 21.0112 99.0521 21.3056 99.0521 21.6094C99.0521 21.7519 99.0901 21.8658 99.1661 21.9513C99.2421 22.0367 99.3228 22.1174 99.4082 22.1934C99.4937 22.2694 99.5744 22.3548 99.6504 22.4498C99.7263 22.5448 99.7643 22.6729 99.7643 22.8344C99.7643 23.2237 99.6409 23.5276 99.394 23.746C99.1471 23.9644 98.8432 24.0736 98.4824 24.0736C98.264 24.0736 98.0693 24.0308 97.8984 23.9454C97.737 23.8504 97.5945 23.7317 97.4711 23.5893C97.3477 23.4374 97.2527 23.2664 97.1862 23.0765C97.1292 22.8866 97.1008 22.6919 97.1008 22.4925C97.1008 22.3026 97.153 22.0984 97.2574 21.88C97.3619 21.6616 97.4901 21.448 97.642 21.2391C97.794 21.0302 97.9506 20.8355 98.1121 20.6551C98.283 20.4652 98.4254 20.3132 98.5394 20.1993C98.7483 19.9999 98.9477 19.8242 99.1376 19.6723C99.337 19.5203 99.5459 19.3684 99.7643 19.2165C99.9258 19.112 100.092 19.0266 100.263 18.9601C100.434 18.8936 100.6 18.8366 100.761 18.7892C100.856 18.7512 100.985 18.7085 101.146 18.661C101.317 18.604 101.502 18.5518 101.701 18.5043C101.91 18.4568 102.124 18.4188 102.342 18.3903C102.57 18.3524 102.789 18.3334 102.998 18.3334C103.444 18.3334 103.881 18.3951 104.308 18.5185C104.745 18.642 105.129 18.8366 105.462 19.1025C105.804 19.3684 106.079 19.7103 106.288 20.1281C106.497 20.5459 106.601 21.0444 106.601 21.6237C106.601 22.2694 106.568 22.9293 106.502 23.6035C106.435 24.2777 106.359 24.9234 106.274 25.5407C106.198 26.1579 106.127 26.7229 106.06 27.2357C105.994 27.7484 105.96 28.1615 105.96 28.4749C105.96 28.6363 105.975 28.8405 106.003 29.0874C106.032 29.3247 106.084 29.5574 106.16 29.7853C106.245 30.0037 106.359 30.1936 106.502 30.355C106.644 30.5165 106.829 30.5972 107.057 30.5972C107.323 30.5972 107.579 30.5355 107.826 30.412C108.073 30.2886 108.301 30.1319 108.51 29.942C108.719 29.7521 108.904 29.5431 109.065 29.3153C109.236 29.0874 109.374 28.8642 109.479 28.6458C109.498 28.6078 109.517 28.5698 109.536 28.5318C109.564 28.4844 109.602 28.4606 109.649 28.4606C109.687 28.4606 109.706 28.4939 109.706 28.5603V28.7028C109.706 29.1206 109.626 29.5431 109.464 29.9705C109.312 30.3883 109.084 30.7729 108.781 31.1242C108.486 31.466 108.121 31.7462 107.684 31.9646C107.247 32.183 106.744 32.2922 106.174 32.2922C106.07 32.2922 105.946 32.2827 105.804 32.2637C105.671 32.2542 105.543 32.2257 105.419 32.1782C105.172 32.0548 104.968 31.9218 104.807 31.7794C104.645 31.6275 104.503 31.4708 104.379 31.3094C104.265 31.1479 104.156 30.977 104.052 30.7966C103.957 30.6067 103.852 30.4073 103.738 30.1984ZM99.2231 29.6856C99.2231 29.923 99.2706 30.1271 99.3655 30.2981C99.4605 30.469 99.5839 30.6114 99.7358 30.7254C99.8973 30.8298 100.078 30.9105 100.277 30.9675C100.477 31.015 100.676 31.0387 100.875 31.0387C101.122 31.0387 101.36 31.015 101.588 30.9675C101.825 30.9105 102.048 30.8393 102.257 30.7539C102.466 30.6684 102.656 30.5782 102.827 30.4832C103.007 30.3788 103.169 30.2791 103.311 30.1841C103.548 29.9752 103.667 29.7616 103.667 29.5431C103.667 28.8405 103.71 28.1805 103.795 27.5633C103.89 26.9366 103.938 26.3241 103.938 25.7258C103.938 25.6594 103.928 25.5882 103.909 25.5122C103.9 25.4362 103.857 25.3982 103.781 25.3982C103.696 25.3982 103.61 25.4125 103.525 25.441C103.449 25.46 103.377 25.479 103.311 25.4979C102.893 25.6499 102.485 25.8161 102.086 25.9965C101.687 26.1769 101.293 26.3621 100.904 26.552C100.638 26.6944 100.401 26.8843 100.192 27.1217C99.9827 27.3591 99.8071 27.6203 99.6646 27.9051C99.5222 28.19 99.413 28.4891 99.337 28.8025C99.2611 29.1063 99.2231 29.4007 99.2231 29.6856ZM116.33 18.134C116.52 18.134 116.752 18.1577 117.028 18.2052C117.313 18.2432 117.597 18.3001 117.882 18.3761C118.177 18.4521 118.457 18.5423 118.723 18.6467C118.989 18.7512 119.207 18.8651 119.378 18.9886C119.511 19.0835 119.644 19.2022 119.777 19.3447C119.91 19.4776 120.033 19.6106 120.147 19.7435C120.27 19.8764 120.384 19.9904 120.489 20.0853C120.593 20.1803 120.679 20.2278 120.745 20.2278C120.859 20.2278 120.949 20.204 121.016 20.1566C121.092 20.0996 121.154 20.0331 121.201 19.9571C121.258 19.8812 121.31 19.8005 121.358 19.715C121.415 19.6295 121.481 19.5536 121.557 19.4871C121.681 19.3637 121.828 19.245 121.999 19.131C122.17 19.0076 122.341 18.9031 122.512 18.8177C122.692 18.7227 122.872 18.6515 123.053 18.604C123.233 18.547 123.399 18.5185 123.551 18.5185C123.741 18.5185 123.936 18.5423 124.135 18.5898C124.344 18.6277 124.534 18.6942 124.705 18.7892C124.942 18.9221 125.104 19.0788 125.189 19.2592C125.275 19.4301 125.318 19.639 125.318 19.8859C125.318 20.0569 125.308 20.223 125.289 20.3845C125.28 20.5459 125.251 20.7073 125.204 20.8687C125.128 21.0587 125.014 21.2343 124.862 21.3958C124.71 21.5477 124.534 21.6237 124.335 21.6237C124.202 21.6237 124.064 21.5952 123.922 21.5382C123.779 21.4812 123.646 21.4053 123.523 21.3103C123.409 21.2058 123.314 21.0871 123.238 20.9542C123.162 20.8213 123.124 20.6788 123.124 20.5269C123.124 20.4509 123.138 20.3845 123.167 20.3275C123.195 20.261 123.209 20.1756 123.209 20.0711C123.209 19.9761 123.152 19.8954 123.039 19.829C122.934 19.7625 122.806 19.7292 122.654 19.7292C122.464 19.7292 122.274 19.7482 122.084 19.7862C121.904 19.8242 121.738 19.8907 121.586 19.9856C121.434 20.0711 121.31 20.1898 121.215 20.3417C121.13 20.4842 121.087 20.6598 121.087 20.8687C121.087 21.1726 121.12 21.4527 121.187 21.7091C121.263 21.9655 121.301 22.2361 121.301 22.521C121.301 22.7109 121.296 22.8961 121.287 23.0765C121.277 23.2569 121.249 23.4231 121.201 23.575C121.002 24.4487 120.698 25.1324 120.289 25.6261C119.881 26.1199 119.383 26.4903 118.794 26.7371C118.215 26.984 117.559 27.1407 116.828 27.2072C116.097 27.2642 115.314 27.2926 114.478 27.2926C114.26 27.3306 114.018 27.3876 113.752 27.4636C113.495 27.53 113.253 27.625 113.025 27.7484C112.807 27.8624 112.622 28.0143 112.47 28.2042C112.327 28.3942 112.256 28.6316 112.256 28.9164C112.256 29.0304 112.294 29.1491 112.37 29.2725C112.455 29.396 112.55 29.5147 112.655 29.6286C112.769 29.7331 112.888 29.8328 113.011 29.9277C113.134 30.0132 113.239 30.0797 113.324 30.1271C113.866 30.1271 114.35 30.1176 114.777 30.0987C115.204 30.0797 115.603 30.0559 115.974 30.0274C116.353 29.9989 116.724 29.9752 117.085 29.9562C117.446 29.9372 117.835 29.9277 118.253 29.9277C118.803 29.9277 119.359 30.0132 119.919 30.1841C120.489 30.3455 120.997 30.5924 121.443 30.9248C121.899 31.2476 122.269 31.6512 122.554 32.1355C122.839 32.6103 122.982 33.1658 122.982 33.802C122.982 34.6946 122.806 35.4448 122.455 36.0525C122.103 36.6697 121.638 37.1635 121.059 37.5339C120.479 37.9137 119.819 38.1843 119.079 38.3457C118.338 38.5167 117.583 38.6021 116.814 38.6021C116.615 38.6021 116.353 38.5926 116.031 38.5736C115.717 38.5547 115.394 38.5262 115.062 38.4882C114.739 38.4502 114.426 38.4027 114.122 38.3457C113.828 38.2983 113.595 38.246 113.424 38.1891C113.149 38.1036 112.854 37.9612 112.541 37.7618C112.228 37.5623 111.947 37.3439 111.701 37.1065C111.378 36.8027 111.145 36.4703 111.003 36.1095C110.86 35.7581 110.789 35.3926 110.789 35.0127C110.789 34.8703 110.808 34.7089 110.846 34.5284C110.893 34.348 110.96 34.1629 111.045 33.9729C111.14 33.7925 111.264 33.6168 111.416 33.4459C111.568 33.2845 111.753 33.1421 111.971 33.0186C112.218 32.8667 112.422 32.7622 112.584 32.7052C112.755 32.6483 112.892 32.5438 112.997 32.3919C112.94 32.3634 112.859 32.3302 112.755 32.2922C112.65 32.2542 112.531 32.2067 112.398 32.1497C112.275 32.0833 112.142 32.0073 112 31.9218C111.857 31.8364 111.724 31.7319 111.601 31.6085C111.382 31.3901 111.207 31.11 111.074 30.7681C110.95 30.4263 110.889 30.0892 110.889 29.7568C110.889 29.5859 110.908 29.4102 110.946 29.2298C110.993 29.0494 111.055 28.8784 111.131 28.717C111.207 28.5461 111.297 28.3894 111.401 28.247C111.506 28.1045 111.62 27.9858 111.743 27.8909C111.943 27.72 112.166 27.5823 112.413 27.4778C112.669 27.3639 112.973 27.2452 113.324 27.1217C113.353 27.1217 113.386 27.0742 113.424 26.9793C113.32 26.9128 113.229 26.8511 113.153 26.7941C113.077 26.7276 113.02 26.6754 112.982 26.6374C112.764 26.4 112.555 26.1437 112.356 25.8683C112.156 25.5834 111.981 25.289 111.829 24.9852C111.677 24.6813 111.553 24.3679 111.458 24.0451C111.373 23.7222 111.33 23.3994 111.33 23.0765C111.33 21.4053 111.995 20.0663 113.324 19.0598C113.486 18.9553 113.623 18.8651 113.737 18.7892C113.851 18.7132 114.018 18.6325 114.236 18.547C114.53 18.3951 114.863 18.2906 115.233 18.2337C115.603 18.1672 115.969 18.134 116.33 18.134ZM117.213 37.9612C117.754 37.9612 118.257 37.8994 118.723 37.776C119.188 37.6526 119.592 37.4531 119.933 37.1778C120.275 36.9119 120.541 36.5605 120.731 36.1237C120.93 35.6964 121.03 35.1789 121.03 34.5712C121.03 34.3338 120.987 34.1154 120.902 33.916C120.826 33.7166 120.722 33.5314 120.589 33.3605C120.465 33.199 120.323 33.0518 120.161 32.9189C120 32.786 119.838 32.6673 119.677 32.5628C119.544 32.4868 119.392 32.4251 119.221 32.3776C119.06 32.3302 118.889 32.2922 118.708 32.2637C118.538 32.2447 118.362 32.2352 118.181 32.2352C118.001 32.2257 117.835 32.221 117.683 32.221C117.521 32.221 117.284 32.2257 116.971 32.2352C116.667 32.2352 116.325 32.2495 115.945 32.2779C115.575 32.3159 115.19 32.3681 114.791 32.4346C114.402 32.5011 114.046 32.596 113.723 32.7195C113.4 32.8524 113.134 33.0139 112.926 33.2038C112.726 33.4032 112.626 33.6453 112.626 33.9302C112.626 34.2436 112.693 34.5807 112.826 34.9415C112.968 35.3118 113.149 35.6632 113.367 35.9955C113.595 36.3374 113.851 36.646 114.136 36.9214C114.421 37.1968 114.706 37.3962 114.991 37.5196C115.361 37.6905 115.717 37.8045 116.059 37.8615C116.401 37.9279 116.786 37.9612 117.213 37.9612ZM113.595 22.3501C113.595 22.597 113.614 22.8771 113.652 23.1905C113.699 23.4943 113.766 23.8077 113.851 24.1305C113.946 24.4534 114.065 24.7668 114.207 25.0706C114.35 25.365 114.521 25.6309 114.72 25.8683C114.92 26.1057 115.148 26.2956 115.404 26.438C115.66 26.5805 115.95 26.6517 116.273 26.6517C116.634 26.6517 116.942 26.6279 117.199 26.5805C117.455 26.5235 117.673 26.4333 117.854 26.3098C118.034 26.1769 118.186 26.006 118.31 25.7971C118.433 25.5787 118.542 25.3128 118.637 24.9994C118.751 24.6766 118.827 24.3679 118.865 24.0736C118.903 23.7697 118.922 23.4326 118.922 23.0623C118.922 22.5875 118.87 22.0937 118.765 21.5809C118.67 21.0682 118.504 20.5981 118.267 20.1708C118.029 19.7435 117.716 19.3921 117.327 19.1168C116.947 18.8414 116.467 18.7037 115.888 18.7037C115.47 18.7037 115.114 18.8319 114.82 19.0883C114.526 19.3447 114.288 19.658 114.108 20.0284C113.927 20.3987 113.794 20.7975 113.709 21.2248C113.633 21.6427 113.595 22.0177 113.595 22.3501ZM137.239 31.11V23.0765C137.239 22.07 136.978 21.3103 136.456 20.7975C135.943 20.2848 135.236 20.0284 134.334 20.0284C133.906 20.0284 133.517 20.0711 133.166 20.1566C132.814 20.242 132.539 20.3655 132.34 20.5269C132.036 20.7738 131.784 21.0159 131.585 21.2533C131.395 21.4907 131.243 21.7471 131.129 22.0225C131.015 22.2884 130.934 22.5875 130.887 22.9198C130.839 23.2522 130.816 23.6368 130.816 24.0736V30.8393C130.816 31.0862 130.887 31.2571 131.029 31.3521C131.172 31.4376 131.428 31.4803 131.798 31.4803H132.61C132.952 31.4803 133.123 31.5895 133.123 31.8079C133.123 32.0928 132.985 32.2542 132.71 32.2922H131.941C131.58 32.2922 131.21 32.2827 130.83 32.2637C130.459 32.2542 130.051 32.2495 129.605 32.2495C129.434 32.2495 129.211 32.2542 128.935 32.2637C128.67 32.2732 128.385 32.2779 128.081 32.2779C127.777 32.2874 127.473 32.2969 127.169 32.3064C126.865 32.3159 126.599 32.3207 126.372 32.3207C126.163 32.3207 126.058 32.2162 126.058 32.0073C126.058 31.7699 126.182 31.637 126.429 31.6085C126.742 31.58 127.055 31.5658 127.369 31.5658H128.18C128.228 31.5658 128.28 31.542 128.337 31.4945C128.394 31.4471 128.423 31.3853 128.423 31.3094V25.327C128.423 25.0042 128.442 24.6101 128.48 24.1448C128.527 23.6795 128.551 23.2095 128.551 22.7347C128.551 22.5068 128.541 22.2884 128.522 22.0795C128.503 21.8611 128.47 21.6616 128.423 21.4812C128.375 21.2913 128.299 21.1251 128.195 20.9827C128.1 20.8403 127.976 20.7263 127.824 20.6408C127.777 20.6029 127.663 20.5744 127.483 20.5554C127.302 20.5364 127.112 20.5269 126.913 20.5269C126.751 20.5269 126.595 20.5364 126.443 20.5554C126.3 20.5649 126.205 20.5696 126.158 20.5696C125.977 20.5696 125.864 20.5459 125.816 20.4984C125.778 20.4604 125.759 20.4272 125.759 20.3987C125.759 20.3322 125.802 20.28 125.887 20.242C125.982 20.204 126.11 20.1471 126.272 20.0711C126.329 20.0521 126.419 20.0284 126.542 19.9999C126.666 19.9714 126.789 19.9429 126.913 19.9144C127.046 19.8859 127.164 19.8622 127.269 19.8432C127.383 19.8147 127.454 19.8005 127.483 19.8005C127.957 19.677 128.427 19.4966 128.893 19.2592C129.367 19.0218 129.833 18.8177 130.289 18.6467C130.336 18.6182 130.393 18.5945 130.459 18.5755C130.497 18.566 130.531 18.5565 130.559 18.547C130.711 18.604 130.787 18.7274 130.787 18.9174C130.787 19.1168 130.763 19.3067 130.716 19.4871C130.668 19.6675 130.645 19.829 130.645 19.9714C130.645 20.0569 130.645 20.185 130.645 20.356C130.654 20.5174 130.668 20.6836 130.687 20.8545C130.706 21.0159 130.725 21.1631 130.744 21.2961C130.773 21.4195 130.811 21.4812 130.858 21.4812C130.896 21.4812 130.977 21.4053 131.1 21.2533C131.233 21.0919 131.39 20.902 131.57 20.6836C131.751 20.4557 131.95 20.2183 132.169 19.9714C132.397 19.7245 132.625 19.5108 132.852 19.3304C133.308 18.9981 133.759 18.7512 134.206 18.5898C134.661 18.4283 135.184 18.3476 135.772 18.3476C136.542 18.3476 137.164 18.4521 137.638 18.661C138.123 18.8699 138.502 19.1453 138.778 19.4871C139.063 19.8195 139.262 20.1993 139.376 20.6266C139.49 21.0444 139.561 21.4622 139.59 21.88C139.609 22.0984 139.623 22.3216 139.632 22.5495C139.651 22.7679 139.661 22.9863 139.661 23.2047V28.5034C139.661 28.7408 139.651 28.9592 139.632 29.1586C139.623 29.3485 139.609 29.5384 139.59 29.7283C139.58 29.9087 139.566 30.0939 139.547 30.2838C139.537 30.4642 139.533 30.6589 139.533 30.8678C139.533 30.9818 139.556 31.072 139.604 31.1384C139.661 31.1954 139.761 31.2381 139.903 31.2666C140.045 31.2951 140.24 31.3141 140.487 31.3236C140.734 31.3331 141.047 31.3379 141.427 31.3379C141.589 31.3379 141.703 31.4043 141.769 31.5373C141.845 31.6607 141.883 31.7747 141.883 31.8791C141.883 31.9836 141.854 32.0643 141.797 32.1213C141.74 32.1687 141.669 32.2067 141.584 32.2352C141.508 32.2637 141.422 32.2779 141.327 32.2779C141.232 32.2874 141.142 32.2922 141.057 32.2922C140.639 32.2922 140.169 32.2779 139.647 32.2495C139.134 32.2305 138.635 32.221 138.151 32.221C137.999 32.221 137.838 32.2257 137.667 32.2352C137.505 32.2447 137.311 32.2495 137.083 32.2495C136.855 32.2589 136.584 32.2684 136.271 32.2779C135.967 32.2874 135.592 32.2922 135.146 32.2922C135.003 32.2922 134.908 32.2542 134.861 32.1782C134.823 32.1023 134.804 32.0026 134.804 31.8791C134.804 31.6417 134.918 31.5088 135.146 31.4803C135.25 31.4708 135.355 31.466 135.459 31.466C135.573 31.466 135.692 31.466 135.815 31.466C135.996 31.466 136.171 31.4613 136.342 31.4518C136.513 31.4423 136.665 31.4233 136.798 31.3948C136.931 31.3663 137.035 31.3284 137.111 31.2809C137.197 31.2334 137.239 31.1764 137.239 31.11ZM155.628 23.1335H145.771C145.667 23.1715 145.605 23.2142 145.586 23.2617C145.567 23.2997 145.548 23.3804 145.529 23.5038C145.51 23.5893 145.491 23.7745 145.472 24.0593C145.463 24.3442 145.458 24.6671 145.458 25.0279C145.458 25.3887 145.501 25.7353 145.586 26.0677C145.672 26.4 145.767 26.7276 145.871 27.0505C146.27 28.228 146.892 29.1253 147.737 29.7426C148.592 30.3598 149.712 30.6684 151.099 30.6684C151.307 30.6684 151.535 30.6304 151.782 30.5545C152.029 30.4785 152.276 30.3835 152.523 30.2696C152.77 30.1461 153.007 30.0037 153.235 29.8423C153.463 29.6808 153.662 29.5147 153.833 29.3437C153.957 29.2298 154.057 29.1016 154.132 28.9592C154.218 28.8072 154.322 28.6221 154.446 28.4037C154.484 28.3657 154.536 28.3372 154.603 28.3182C154.669 28.2897 154.726 28.2755 154.773 28.2755C154.944 28.2755 155.058 28.3324 155.115 28.4464C155.182 28.5508 155.215 28.6838 155.215 28.8452C155.215 28.8927 155.196 28.9592 155.158 29.0446C155.13 29.1206 155.092 29.2013 155.044 29.2868C155.006 29.3722 154.959 29.4577 154.902 29.5431C154.854 29.6191 154.816 29.6761 154.788 29.7141C154.427 30.2553 153.971 30.7349 153.42 31.1527C152.87 31.561 152.21 31.8934 151.44 32.1497C151.27 32.1972 150.975 32.2352 150.557 32.2637C150.149 32.3017 149.703 32.3207 149.218 32.3207C148.791 32.3207 148.35 32.2637 147.894 32.1497C147.447 32.0358 147.011 31.8744 146.583 31.6655C146.156 31.4566 145.757 31.2144 145.387 30.939C145.026 30.6637 144.727 30.3598 144.49 30.0274C143.977 29.3247 143.597 28.6126 143.35 27.8909C143.113 27.1692 142.994 26.3621 142.994 25.4695C142.994 25.1466 143.008 24.8427 143.037 24.5579C143.075 24.2635 143.132 23.9786 143.208 23.7032C143.293 23.4279 143.397 23.1572 143.521 22.8913C143.644 22.616 143.796 22.3358 143.977 22.051C144.29 21.5287 144.646 21.0492 145.045 20.6124C145.444 20.1756 145.885 19.8005 146.37 19.4871C146.854 19.1737 147.376 18.9316 147.936 18.7607C148.497 18.5898 149.1 18.5043 149.745 18.5043C150.287 18.5043 150.847 18.5613 151.426 18.6752C152.015 18.7797 152.58 19.0171 153.121 19.3874C153.292 19.5108 153.53 19.7008 153.833 19.9571C154.137 20.2135 154.436 20.5032 154.731 20.826C155.025 21.1394 155.281 21.4717 155.5 21.8231C155.718 22.1744 155.827 22.5115 155.827 22.8344C155.827 22.9198 155.808 22.9911 155.771 23.048C155.742 23.105 155.695 23.1335 155.628 23.1335ZM146.142 22.3643H152.48C152.642 22.3643 152.737 22.3453 152.765 22.3074C152.803 22.2599 152.822 22.2124 152.822 22.1649C152.822 21.9465 152.765 21.7186 152.651 21.4812C152.547 21.2438 152.414 21.0207 152.252 20.8118C152.1 20.5934 151.944 20.3987 151.782 20.2278C151.621 20.0569 151.483 19.9239 151.369 19.829C151.065 19.5726 150.761 19.4064 150.458 19.3304C150.154 19.2545 149.807 19.2165 149.418 19.2165C149.256 19.2165 149.104 19.2212 148.962 19.2307C148.829 19.2307 148.696 19.2402 148.563 19.2592C148.43 19.2782 148.297 19.3067 148.164 19.3447C148.031 19.3827 147.884 19.4396 147.723 19.5156C147.542 19.6011 147.343 19.7387 147.125 19.9287C146.916 20.1091 146.716 20.3227 146.526 20.5696C146.346 20.807 146.189 21.0682 146.056 21.353C145.933 21.6379 145.871 21.918 145.871 22.1934C145.871 22.3074 145.961 22.3643 146.142 22.3643ZM158.961 28.2755C158.961 26.9271 158.994 25.6024 159.061 24.3015C159.127 22.9911 159.17 21.6569 159.189 20.299C158.819 20.299 158.463 20.3275 158.121 20.3845C157.788 20.4414 157.456 20.4699 157.124 20.4699C157.019 20.4699 156.915 20.4604 156.81 20.4414C156.706 20.4224 156.654 20.356 156.654 20.242C156.654 20.204 156.663 20.1756 156.682 20.1566C156.711 20.1376 156.749 20.1043 156.796 20.0569C157.28 19.62 157.746 19.188 158.192 18.7607C158.648 18.3334 159.089 17.8871 159.517 17.4218C159.64 17.2793 159.768 17.1227 159.901 16.9517C160.044 16.7808 160.186 16.6099 160.328 16.439C160.48 16.2585 160.632 16.0781 160.784 15.8977C160.946 15.7173 161.102 15.5511 161.254 15.3992C161.292 15.3612 161.345 15.3422 161.411 15.3422C161.496 15.3422 161.553 15.3992 161.582 15.5131L161.411 18.6467C161.411 18.8271 161.449 18.9174 161.525 18.9174L165.2 18.6467C165.285 18.6467 165.352 18.6705 165.399 18.7179C165.447 18.7654 165.48 18.8271 165.499 18.9031C165.518 18.9696 165.527 19.0408 165.527 19.1168C165.537 19.1927 165.542 19.2592 165.542 19.3162C165.542 19.5726 165.508 19.7625 165.442 19.8859C165.376 19.9999 165.19 20.0569 164.886 20.0569H161.454C161.378 20.0569 161.321 20.1043 161.283 20.1993C161.264 20.2373 161.254 20.28 161.254 20.3275V28.19C161.254 28.5224 161.33 28.8737 161.482 29.244C161.644 29.6144 161.891 29.9657 162.223 30.2981C162.375 30.45 162.574 30.5782 162.821 30.6826C163.068 30.7871 163.305 30.8393 163.533 30.8393C164.046 30.8393 164.454 30.7776 164.758 30.6542C165.062 30.5212 165.309 30.355 165.499 30.1556C165.698 29.9562 165.86 29.7426 165.983 29.5147C166.107 29.2773 166.249 29.0541 166.411 28.8452C166.449 28.7503 166.491 28.7028 166.539 28.7028C166.586 28.7028 166.615 28.736 166.624 28.8025C166.643 28.8595 166.653 28.9069 166.653 28.9449C166.653 29.1633 166.581 29.4245 166.439 29.7283C166.306 30.0227 166.126 30.3218 165.898 30.6257C165.679 30.92 165.432 31.1907 165.157 31.4376C164.882 31.675 164.611 31.8459 164.345 31.9503C163.87 32.1497 163.367 32.2495 162.835 32.2495C162.228 32.2495 161.682 32.126 161.197 31.8791C160.723 31.6322 160.319 31.3189 159.987 30.939C159.654 30.5497 159.398 30.1224 159.217 29.6571C159.047 29.1823 158.961 28.7218 158.961 28.2755Z" fill="white"/>
<defs>
<filter id="filter0_i_416_71" x="0" y="0" width="39.3706" height="42.0796" filterUnits="userSpaceOnUse" color-interpolation-filters="sRGB">
<feFlood flood-opacity="0" result="BackgroundImageFix"/>
<feBlend mode="normal" in="SourceGraphic" in2="BackgroundImageFix" result="shape"/>
<feColorMatrix in="SourceAlpha" type="matrix" values="0 0 0 0 0 0 0 0 0 0 0 0 0 0 0 0 0 0 127 0" result="hardAlpha"/>
<feOffset dy="2.70965"/>
<feGaussianBlur stdDeviation="1.35482"/>
<feComposite in2="hardAlpha" operator="arithmetic" k2="-1" k3="1"/>
<feColorMatrix type="matrix" values="0 0 0 0 0 0 0 0 0 0 0 0 0 0 0 0 0 0 0.25 0"/>
<feBlend mode="normal" in2="shape" result="effect1_innerShadow_416_71"/>
</filter>
</defs>
</svg>
